:SAMPLES-PER-SECOND 30
:FULLY-SPECIFIED
:DEGREES
168
root  -3.94352 22.2286 -1.14714 22.3942 -83.7522 17.9644
RightUpLeg  -34.5116 -6.40667 -3.70915
RightLeg  99.3304 1.96493 -8.08959
RightFoot  -18.3503 1.16707 20.8922
RightToes  -1.33073e-015 0 -3.6325e-017
Spine  52.4564 -4.40794 8.41517
Spine1  -8.83418 0.334315 -5.12691
HEad  -45.0868 -5.99185 -0.52368
LeftShoulder1  5.6859 -17.4872 -20.624
LeftArm  4.30709 -75.6671 -48.6556
LeftForeArm  60.3451 -1.07532 -8.60754
LeftHand  -0.244104 0.0205437 5.32207
RightShoulder  3.87723 11.7887 18.8658
RightArm  -23.974 49.0891 34.1995
RightForeArm  20.211 37.3181 7.32527
RightHand  -22.2217 36.1062 -56.8922
LeftUpLeg  -44.4805 -0.00291545 5.23949
LeftLeg  111.416 -1.40786 2.54055
LeftFoot  -13.1749 -0.038223 -7.29763
LeftToes  -7.82198e-011 2.46994e-011 -7.94165e-012
169
root  -4.26029 22.2373 -1.08903 26.9432 -84.6281 12.3881
RightUpLeg  -32.5798 -5.57436 -3.57211
RightLeg  98.3484 1.89214 -8.4978
RightFoot  -18.4842 1.17069 20.5736
RightToes  -1.33073e-015 0 -3.6325e-017
Spine  53.2535 -4.04936 8.18745
Spine1  -8.76536 0.753523 -6.34516
HEad  -45.746 -6.23375 -0.0715225
LeftShoulder1  5.74447 -17.5663 -20.8113
LeftArm  6.17004 -75.0463 -50.6725
LeftForeArm  61.5861 -1.63862 -8.74662
LeftHand  -0.244104 0.0205437 5.32207
RightShoulder  3.61143 11.4542 17.5601
RightArm  -26.5981 53.6223 32.0119
RightForeArm  16.0098 30.5519 5.77876
RightHand  -19.179 33.4633 -53.1647
LeftUpLeg  -49.563 1.58887 4.93113
LeftLeg  116.417 -1.36615 1.93538
LeftFoot  -14.5079 -0.106552 -6.9666
LeftToes  -7.82198e-011 2.46994e-011 -7.94165e-012
170
root  -4.62216 22.2009 -1.00171 39.3036 -86.0408 -1.6189
RightUpLeg  -30.0625 -4.28692 -3.27244
RightLeg  97.2499 1.89524 -9.55531
RightFoot  -18.2753 1.02281 18.7779
RightToes  -1.33073e-015 0 -3.6325e-017
Spine  54.144 -3.45319 7.85682
Spine1  -7.79235 1.51664 -7.91198
HEad  -46.7297 -6.404 0.501485
LeftShoulder1  5.82438 -17.702 -21.0257
LeftArm  7.35103 -74.6937 -51.6144
LeftForeArm  62.5667 -2.05846 -8.9387
LeftHand  -0.244104 0.0205437 5.32207
RightShoulder  3.43537 11.4855 16.2272
RightArm  -27.5872 57.2995 30.4266
RightForeArm  12.3239 23.0081 4.35443
RightHand  -18.8756 33.2305 -52.674
LeftUpLeg  -53.2083 3.1691 4.55706
LeftLeg  119.573 -1.04028 1.14534
LeftFoot  -16.0411 -0.196666 -7.13926
LeftToes  -7.82198e-011 2.46994e-011 -7.94165e-012
171
root  -5.00417 22.1059 -0.876346 70.8803 -87.064 -35.3076
RightUpLeg  -26.9834 -2.86565 -2.69364
RightLeg  96.0204 1.90661 -11.121
RightFoot  -18.1073 0.879857 16.8719
RightToes  -1.33073e-015 0 -3.6325e-017
Spine  55.2307 -2.82267 7.64447
Spine1  -6.66477 2.49981 -9.72865
HEad  -47.5938 -6.44952 1.15452
LeftShoulder1  5.90286 -17.8808 -21.1693
LeftArm  7.99286 -74.2388 -51.8458
LeftForeArm  63.5462 -2.18728 -9.13149
LeftHand  -0.244104 0.0205437 5.32207
RightShoulder  3.37279 11.7253 15.3832
RightArm  -27.3687 59.1838 30.1834
RightForeArm  10.3123 16.8117 3.77879
RightHand  -21.7629 35.8246 -56.2128
LeftUpLeg  -55.372 4.68024 4.5241
LeftLeg  121.211 -0.959031 0.936648
LeftFoot  -15.5049 -0.166666 -7.12804
LeftToes  -7.82198e-011 2.46994e-011 -7.94165e-012
172
root  -5.41366 21.905 -0.684647 110.428 -85.9869 -76.8784
RightUpLeg  -23.5583 -1.73475 -1.56991
RightLeg  94.5985 1.82833 -12.8546
RightFoot  -18.4856 0.89918 16.3155
RightToes  -1.33073e-015 0 -3.6325e-017
Spine  56.0432 -2.51605 8.05029
Spine1  -5.95319 3.40689 -11.1578
HEad  -48.044 -6.20658 1.51535
LeftShoulder1  6.11152 -17.9452 -22.1141
LeftArm  7.75139 -73.3562 -50.7412
LeftForeArm  64.557 -2.42238 -9.35907
LeftHand  -0.244104 0.0205437 5.32207
RightShoulder  3.57775 12.3385 15.848
RightArm  -27.0773 59.5756 30.611
RightForeArm  10.1502 13.0136 3.77448
RightHand  -25.1963 38.4082 -60.4459
LeftUpLeg  -56.479 6.16745 5.21754
LeftLeg  122.371 -1.67565 1.93566
LeftFoot  -11.0195 0.0752439 -6.13391
LeftToes  -7.82198e-011 2.46994e-011 -7.94165e-012
173
root  -5.86313 21.5686 -0.427595 123.168 -83.3952 -91.2538
RightUpLeg  -20.1007 -0.932853 -0.0681348
RightLeg  93.0948 1.63343 -14.4915
RightFoot  -19.3914 1.03481 16.4849
RightToes  -1.33073e-015 0 -3.6325e-017
Spine  55.9774 -2.52554 9.08867
Spine1  -5.09428 4.21794 -11.8417
HEad  -48.2684 -5.68843 1.36819
LeftShoulder1  6.49545 -17.8107 -24.2048
LeftArm  7.03054 -72.2423 -48.6487
LeftForeArm  65.6901 -2.92713 -9.64352
LeftHand  -0.244104 0.0205437 5.32207
RightShoulder  4.04316 13.3758 17.3356
RightArm  -27.0798 59.5751 30.6096
RightForeArm  10.5293 10.8922 3.6852
RightHand  -26.9501 39.5256 -62.5778
LeftUpLeg  -56.4573 7.46494 6.59513
LeftLeg  123.657 -2.55894 3.07358
LeftFoot  -4.57824 0.3039 -4.64192
LeftToes  -7.82198e-011 2.46994e-011 -7.94165e-012
174
root  -6.34646 21.2069 -0.133271 128.401 -80.7719 -97.7906
RightUpLeg  -16.9341 -0.133674 1.20266
RightLeg  91.5018 1.31894 -16.0924
RightFoot  -20.4009 1.1432 16.0965
RightToes  -1.33073e-015 0 -3.6325e-017
Spine  55.2109 -2.46487 10.0953
Spine1  -3.43396 5.16141 -12.248
HEad  -48.699 -5.06855 0.847563
LeftShoulder1  6.9649 -17.639 -26.7756
LeftArm  6.29152 -71.0807 -46.5358
LeftForeArm  67.2096 -3.61104 -9.86922
LeftHand  -0.244104 0.0205437 5.32207
RightShoulder  4.49191 14.4224 18.5317
RightArm  -27.1585 59.8441 30.5771
RightForeArm  11.022 8.96916 3.49545
RightHand  -28.0379 40.1988 -63.8464
LeftUpLeg  -54.8645 8.44596 8.05926
LeftLeg  124.613 -2.72798 3.18655
LeftFoot  -0.310162 0.389265 -3.98062
LeftToes  -7.82198e-011 2.46994e-011 -7.94165e-012
175
root  -6.88235 21.0025 0.174523 132.941 -78.998 -103.175
RightUpLeg  -14.3122 0.379115 1.52666
RightLeg  89.4476 0.764726 -17.9067
RightFoot  -20.8642 1.14556 15.3768
RightToes  -1.33073e-015 0 -3.6325e-017
Spine  54.4834 -2.13832 10.3547
Spine1  -1.62266 5.98124 -12.4981
HEad  -49.4475 -4.53709 0.18855
LeftShoulder1  7.51048 -17.6978 -29.3217
LeftArm  5.61604 -69.5544 -44.7961
LeftForeArm  68.9566 -4.53058 -9.917
LeftHand  -0.244104 0.0205437 5.32207
RightShoulder  4.77154 15.1895 19.0248
RightArm  -26.3777 59.9792 30.8819
RightForeArm  11.2567 6.91742 3.41229
RightHand  -29.9226 41.2952 -66.0339
LeftUpLeg  -52.2574 9.01938 8.50638
LeftLeg  124.386 -2.52493 2.93685
LeftFoot  0.770115 0.439504 -4.18955
LeftToes  -7.82198e-011 2.46994e-011 -7.94165e-012
176
root  -7.49297 20.9946 0.491246 134.604 -78.8817 -104.888
RightUpLeg  -12.5319 -0.380465 0.663836
RightLeg  86.8971 -0.102635 -19.7142
RightFoot  -19.8203 0.975562 14.9086
RightToes  -1.33073e-015 0 -3.6325e-017
Spine  54.0926 -1.90492 10.0243
Spine1  -1.01042 5.98381 -11.7099
HEad  -50.1342 -4.31169 -0.456103
LeftShoulder1  8.24918 -18.1494 -32.015
LeftArm  5.28432 -67.4054 -43.4405
LeftForeArm  70.2333 -5.67281 -9.86257
LeftHand  -0.244104 0.0205437 5.32207
RightShoulder  5.06416 15.7644 19.8287
RightArm  -25.1281 59.3228 30.2477
RightForeArm  11.371 5.52792 3.70071
RightHand  -31.6658 42.2251 -68.0489
LeftUpLeg  -50.154 8.9501 7.34005
LeftLeg  122.872 -2.90101 3.66506
LeftFoot  1.02865 0.523379 -4.88114
LeftToes  -7.82198e-011 2.46994e-011 -7.94165e-012
177
root  -8.11911 21.078 0.832347 130.505 -80.1024 -100.135
RightUpLeg  -12.0305 -2.41803 -0.637552
RightLeg  84.8812 -0.872909 -20.5466
RightFoot  -16.8977 0.566939 13.8927
RightToes  -1.33073e-015 0 -3.6325e-017
Spine  53.9209 -2.21325 10.1058
Spine1  -1.87229 5.20904 -9.7273
HEad  -50.4102 -4.56284 -1.00074
LeftShoulder1  9.20311 -18.9611 -34.8565
LeftArm  5.79986 -65.1023 -42.7215
LeftForeArm  70.6344 -6.59093 -9.91789
LeftHand  -0.244104 0.0205437 5.32207
RightShoulder  5.42806 16.0672 21.3847
RightArm  -24.2204 58.0337 28.1833
RightForeArm  11.6561 5.04163 4.19029
RightHand  -32.2051 42.5132 -68.6422
LeftUpLeg  -49.3147 8.27761 5.30956
LeftLeg  120.94 -4.03082 5.68251
LeftFoot  1.96707 0.693949 -6.04234
LeftToes  -7.82198e-011 2.46994e-011 -7.94165e-012
